<?xml version="1.0" standalone="no"?>
<svg xmlns:xlink="http://www.w3.org/1999/xlink" id="wave" style="transform:rotate(180deg); transition: 0.3s" viewBox="0 0 1440 140" version="1.1" xmlns="http://www.w3.org/2000/svg"><defs><linearGradient id="sw-gradient-0" x1="0" x2="0" y1="1" y2="0"><stop stop-color="rgba(240, 248, 255, 1)" offset="0%"/><stop stop-color="rgba(240, 248, 255, 1)" offset="100%"/></linearGradient></defs><path style="transform:translate(0, 0px); opacity:1" fill="url(#sw-gradient-0)" d="M0,0L240,14C480,28,960,56,1440,72.3C1920,89,2400,93,2880,91C3360,89,3840,79,4320,63C4800,47,5280,23,5760,30.3C6240,37,6720,75,7200,81.7C7680,89,8160,65,8640,46.7C9120,28,9600,14,10080,9.3C10560,5,11040,9,11520,18.7C12000,28,12480,42,12960,51.3C13440,61,13920,65,14400,72.3C14880,79,15360,89,15840,84C16320,79,16800,61,17280,51.3C17760,42,18240,42,18720,39.7C19200,37,19680,33,20160,44.3C20640,56,21120,84,21600,86.3C22080,89,22560,65,23040,60.7C23520,56,24000,70,24480,74.7C24960,79,25440,75,25920,81.7C26400,89,26880,107,27360,100.3C27840,93,28320,61,28800,53.7C29280,47,29760,65,30240,67.7C30720,70,31200,56,31680,63C32160,70,32640,98,33120,93.3C33600,89,34080,51,34320,32.7L34560,14L34560,140L34320,140C34080,140,33600,140,33120,140C32640,140,32160,140,31680,140C31200,140,30720,140,30240,140C29760,140,29280,140,28800,140C28320,140,27840,140,27360,140C26880,140,26400,140,25920,140C25440,140,24960,140,24480,140C24000,140,23520,140,23040,140C22560,140,22080,140,21600,140C21120,140,20640,140,20160,140C19680,140,19200,140,18720,140C18240,140,17760,140,17280,140C16800,140,16320,140,15840,140C15360,140,14880,140,14400,140C13920,140,13440,140,12960,140C12480,140,12000,140,11520,140C11040,140,10560,140,10080,140C9600,140,9120,140,8640,140C8160,140,7680,140,7200,140C6720,140,6240,140,5760,140C5280,140,4800,140,4320,140C3840,140,3360,140,2880,140C2400,140,1920,140,1440,140C960,140,480,140,240,140L0,140Z"/></svg>