<svg xmlns="http://www.w3.org/2000/svg" height="1225" width="1634" version="1.1" xmlns:xlink="http://www.w3.org/1999/xlink" xmlns:svgjs="http://svgjs.com/svgjs"><rect fill="#f3ebe9" width="1634" height="1225"></rect><g><path d="M1402.03 743.12C1402.09 716.19 1392.68 678.94 1370.84 646.96 1334.22 593.26 1317.73 622.13 1314.44 655.72 1311 690.95 1319 758.42 1349.82 790.41 1370.09 811.47 1381.07 771.47 1343.91 729.78 1312.64 694.68 1256.67 665.33 1225.91 690.21 1200.17 711.02 1258.09 774.41 1297.11 770.87 1323.74 768.42 1317.98 734.46 1271.97 734.21 1225.96 733.96 1154.65 777.6 1123.74 798.32" stroke="#231f20" stroke-width="4" stroke-linecap="round" stroke-linejoin="round" opacity="1" fill="none"></path></g><g><path d="M358.81 499.93L291.69 483.84" stroke="#231f20" stroke-width="4" stroke-linecap="round" stroke-linejoin="round" opacity="1" fill="none"></path><path d="M422.66 567.1L322.58 598.11" stroke="#231f20" stroke-width="4" stroke-linecap="round" stroke-linejoin="round" opacity="1" fill="none"></path><path d="M439.54 632.07L403.8 673.47" stroke="#231f20" stroke-width="4" stroke-linecap="round" stroke-linejoin="round" opacity="1" fill="none"></path></g><g><path d="M413.21 890.77H346.62V957.36H413.21V890.77Z" fill="#246684" opacity="1" stroke-width="4" stroke="none"></path><path d="M380.01 940.94C389.33 940.94 396.89 933.38 396.89 924.06 396.89 914.74 389.33 907.18 380.01 907.18 370.69 907.18 363.13 914.74 363.13 924.06 363.13 933.38 370.69 940.94 380.01 940.94Z" fill="#000000" opacity="1" stroke-width="4" stroke="none"></path><path d="M561.21 698.31V884.29C561.22 889.55 560.18 894.76 558.17 899.62 556.16 904.48 553.21 908.9 549.49 912.62 545.77 916.34 541.35 919.29 536.49 921.3 531.63 923.31 526.42 924.35 521.17 924.34H380.2" stroke="#000000" stroke-width="4" stroke-linecap="round" stroke-linejoin="round" opacity="1" fill="none"></path></g><g><path d="M1137.83 439.95C1186.99 439.95 1226.84 400.1 1226.84 350.94 1226.84 301.78 1186.99 261.92 1137.83 261.92 1088.67 261.92 1048.82 301.78 1048.82 350.94 1048.82 400.1 1088.67 439.95 1137.83 439.95Z" fill="#ffffff" opacity="1" stroke-width="4" stroke="none"></path><path d="M1147.24 316.34L1137.83 350.94 1168.48 391.19" stroke="#246684" stroke-width="4" stroke-linecap="round" stroke-linejoin="round" opacity="1" fill="none"></path><path d="M1137.83 286.91C1140.35 286.91 1142.38 284.86 1142.38 282.36 1142.38 279.84 1140.35 277.8 1137.83 277.8 1135.32 277.8 1133.28 279.84 1133.28 282.36 1133.28 284.86 1135.32 286.91 1137.83 286.91Z" fill="#dcdcdc" opacity="1" stroke-width="4" stroke="none"></path><path d="M1137.83 423.97C1140.35 423.97 1142.38 421.92 1142.38 419.42 1142.38 416.9 1140.35 414.86 1137.83 414.86 1135.32 414.86 1133.28 416.9 1133.28 419.42 1133.28 421.92 1135.32 423.97 1137.83 423.97Z" fill="#dcdcdc" opacity="1" stroke-width="4" stroke="none"></path><path d="M1206.31 355.49C1208.83 355.49 1210.86 353.44 1210.86 350.94 1210.86 348.42 1208.83 346.38 1206.31 346.38 1203.79 346.38 1201.76 348.42 1201.76 350.94 1201.76 353.44 1203.79 355.49 1206.31 355.49Z" fill="#dcdcdc" opacity="1" stroke-width="4" stroke="none"></path><path d="M1069.25 355.49C1071.77 355.49 1073.8 353.44 1073.8 350.94 1073.8 348.42 1071.77 346.38 1069.25 346.38 1066.73 346.38 1064.7 348.42 1064.7 350.94 1064.7 353.44 1066.73 355.49 1069.25 355.49Z" fill="#dcdcdc" opacity="1" stroke-width="4" stroke="none"></path><path d="M1137.63 357.61C1141.15 357.61 1144 354.76 1144 351.24 1144 347.72 1141.15 344.87 1137.63 344.87 1134.11 344.87 1131.26 347.72 1131.26 351.24 1131.26 354.76 1134.11 357.61 1137.63 357.61Z" fill="#888888" opacity="1" stroke-width="4" stroke="none"></path></g><g><path d="M862.19 261.49C810.04 251.6 734.52 220.73 763.89 195.32 793.26 169.91 969.71 243.92 973.13 298.27 975.98 343.65 865.25 326.32 833.71 312.81 802.17 299.3 785.09 276.98 813.4 274.61 846.05 271.87 938.27 322.29 921.77 360.07 908.61 390.16 827.31 370.8 831.53 354.81 835.14 341.2 878.05 359.94 885.45 391.62 889.9 410.64 876.94 420.37 865.3 417.55" stroke="#231f20" stroke-width="4" stroke-linecap="round" stroke-linejoin="round" opacity="1" fill="none"></path></g><g><path d="M568.37 377.76C605.68 377.76 635.93 347.52 635.93 310.21 635.93 272.9 605.68 242.65 568.37 242.65 531.06 242.65 500.82 272.9 500.82 310.21 500.82 347.52 531.06 377.76 568.37 377.76Z" fill="#ffffff" opacity="1" stroke-width="4" stroke="none"></path><path d="M568.44 352.15C591.6 352.15 610.38 333.37 610.38 310.21 610.38 287.05 591.6 268.27 568.44 268.27 545.28 268.27 526.5 287.05 526.5 310.21 526.5 333.37 545.28 352.15 568.44 352.15Z" fill="#246684" opacity="1" stroke-width="4" stroke="none"></path><path d="M580.12 333.5C579.78 333.5 579.37 333.36 579.1 333.02 571.58 324.69 559.7 322.16 549.45 326.81 548.77 327.15 547.95 326.81 547.68 326.12 547.33 325.44 547.68 324.62 548.36 324.35 559.7 319.23 572.88 322.03 581.15 331.25 581.62 331.79 581.62 332.68 581.01 333.16 580.8 333.36 580.46 333.5 580.12 333.5Z" fill="#ffffff" opacity="1" stroke-width="4" stroke="none"></path><path d="M597.4 305.22C597.27 304.47 596.51 303.99 595.76 304.2L577.25 308.3C576.5 308.43 576.02 309.18 576.23 309.94 576.36 310.55 576.91 311.03 577.59 311.03 577.66 311.03 577.8 311.03 577.87 311.03L579.92 310.55 578.96 315.06C578.62 316.63 579.57 318.2 581.21 318.61 581.42 318.68 581.69 318.68 581.9 318.68 583.26 318.68 584.42 317.72 584.77 316.36L586.27 309.18 596.31 306.93C597.06 306.66 597.54 305.91 597.4 305.22Z" fill="#ffffff" opacity="1" stroke-width="4" stroke="none"></path><path d="M561.13 304.88L545.76 293.68C545.15 293.2 544.33 293.34 543.85 293.95 543.37 294.57 543.51 295.39 544.12 295.86L552.46 301.94 551.02 309.05C550.82 309.87 550.95 310.62 551.43 311.3 551.84 311.99 552.53 312.39 553.28 312.6 553.48 312.67 553.75 312.67 553.96 312.67 555.33 312.67 556.49 311.71 556.83 310.35L557.78 305.77 559.49 307.07C559.77 307.27 560.04 307.34 560.31 307.34 560.72 307.34 561.13 307.14 561.4 306.79 561.88 306.18 561.75 305.29 561.13 304.88Z" fill="#ffffff" opacity="1" stroke-width="4" stroke="none"></path></g><g><path d="M932.78 1041.07V1031.84C932.78 1020.48 923.54 1011.25 912.19 1011.25H794.64C783.29 1011.25 774.05 1020.48 774.05 1031.84V1041.07" stroke="#231f20" stroke-width="4" stroke-linecap="round" stroke-linejoin="round" opacity="1" fill="none"></path><path d="M937.11 815.1H769.73C762.61 815.1 756.74 820.97 756.74 828.09 756.74 835.21 762.51 841.08 769.73 841.08H824.27V861.28H840.43V989.12H824.08V1011.25H882.28V989.12H866.4V861.28H882.47V841.08H937.11C944.23 841.08 950.09 835.21 950.09 828.09 950.09 820.97 944.32 815.1 937.11 815.1Z" fill="#231f20" opacity="1" stroke-width="4" stroke="none"></path><path d="M840.43 861.28H866.4" stroke="#6b5f62" stroke-width="4" stroke-linecap="round" stroke-linejoin="round" opacity="1" fill="none"></path><path d="M840.43 989.12H866.4" stroke="#6b5f62" stroke-width="4" stroke-linecap="round" stroke-linejoin="round" opacity="1" fill="none"></path><path d="M853.42 1046.84V1011.63" stroke="#231f20" stroke-width="4" stroke-linecap="round" stroke-linejoin="round" opacity="1" fill="none"></path><path d="M932.49 1063.2C941.52 1063.2 948.84 1055.88 948.84 1046.84 948.84 1037.81 941.52 1030.49 932.49 1030.49 923.46 1030.49 916.14 1037.81 916.14 1046.84 916.14 1055.88 923.46 1063.2 932.49 1063.2Z" fill="#ffc930" opacity="1" stroke-width="4" stroke="none"></path><path d="M932.49 1051.65C935.15 1051.65 937.3 1049.5 937.3 1046.84 937.3 1044.19 935.15 1042.03 932.49 1042.03 929.84 1042.03 927.68 1044.19 927.68 1046.84 927.68 1049.5 929.84 1051.65 932.49 1051.65Z" fill="#231f20" opacity="1" stroke-width="4" stroke="none"></path><path d="M853.22 1063.2C862.26 1063.2 869.58 1055.88 869.58 1046.84 869.58 1037.81 862.26 1030.49 853.22 1030.49 844.19 1030.49 836.87 1037.81 836.87 1046.84 836.87 1055.88 844.19 1063.2 853.22 1063.2Z" fill="#ffc930" opacity="1" stroke-width="4" stroke="none"></path><path d="M853.51 1051.65C856.17 1051.65 858.32 1049.5 858.32 1046.84 858.32 1044.19 856.17 1042.03 853.51 1042.03 850.86 1042.03 848.7 1044.19 848.7 1046.84 848.7 1049.5 850.86 1051.65 853.51 1051.65Z" fill="#231f20" opacity="1" stroke-width="4" stroke="none"></path><path d="M773.67 1063.2C782.7 1063.2 790.02 1055.88 790.02 1046.84 790.02 1037.81 782.7 1030.49 773.67 1030.49 764.64 1030.49 757.32 1037.81 757.32 1046.84 757.32 1055.88 764.64 1063.2 773.67 1063.2Z" fill="#ffc930" opacity="1" stroke-width="4" stroke="none"></path><path d="M773.67 1051.65C776.32 1051.65 778.48 1049.5 778.48 1046.84 778.48 1044.19 776.32 1042.03 773.67 1042.03 771.01 1042.03 768.86 1044.19 768.86 1046.84 768.86 1049.5 771.01 1051.65 773.67 1051.65Z" fill="#231f20" opacity="1" stroke-width="4" stroke="none"></path></g><g><path d="M883.89 495.92L877.15 477.57C877.04 477.35 873.17 468.17 867.42 455.57 859.68 438.66 845.86 420.64 834.92 401.63 824.53 383.5 810.38 374.77 790.93 374.77 775.56 374.77 762.3 378.3 751.91 388.58 731.35 409.14 733.78 425.39 737.1 438.22 740.52 451.7 743.84 460.32 752.9 483.32 757.99 496.03 768.82 509.51 784.07 509.51 784.96 509.51 785.95 509.4 786.73 509.29 799.33 507.41 805.96 502.22 806.96 501.44 807.07 501.44 807.07 501.44 807.18 501.44L810.38 510.29 815.14 529.52 858.02 545.22 883.89 495.92Z" fill="#a56250" opacity="1" stroke-width="4" stroke="none"></path><path d="M821.44 487.07C817.13 492.38 812.26 496.91 806.96 501.22V501.33L810.16 510.18 811.6 514.38C811.6 514.49 811.82 514.49 811.82 514.38L821.66 487.07C821.66 486.96 821.55 486.96 821.44 487.07Z" fill="#000000" opacity="0.3" stroke-width="4" stroke="none"></path><path d="M849.07 460.32C857.03 460.32 863.11 458.67 867.31 455.57 867.31 455.57 867.42 455.46 867.31 455.46 856.48 431.69 846.2 411.24 837.46 396.32 827.07 378.19 810.6 368.25 791.15 368.25 775.78 368.25 759.76 374.77 749.37 385.05 728.81 405.61 733.56 425.17 736.88 437.99 736.88 437.99 736.88 438.11 736.99 438.11 737.87 438.33 748.48 440.65 757.32 428.82 757.32 428.71 757.43 428.71 757.55 428.82 765.73 442.97 782.2 434.68 783.52 433.9H783.63C784.18 434.79 788.72 442.2 797.89 442.42 797.89 442.42 798 442.42 798 442.31 798.22 441.75 798.55 441.09 798.78 440.54 802.2 432.36 809.28 415 822.54 415 824.75 415 827.07 415.45 829.51 416.44 834.48 418.43 837.8 421.86 839.45 426.5 843.43 438.77 833.82 456.45 833.04 458 833.04 458.11 833.04 458.11 833.15 458.11 834.15 458.55 841.11 460.32 849.07 460.32Z" fill="#000000" opacity="1" stroke-width="4" stroke="none"></path><path d="M817.35 446.4L822.98 435.78" stroke="#000000" stroke-width="4" stroke-linecap="round" stroke-linejoin="round" opacity="1" fill="none"></path><path d="M776.45 486.52C777.66 483.65 780.43 481.44 783.74 480.88" stroke="#000000" stroke-width="4" stroke-linecap="round" stroke-linejoin="round" opacity="1" fill="none"></path><path d="M764.3 469.94C764.96 472.37 766.07 475.02 766.84 475.58 767.95 476.13 768.94 476.24 770.16 476.13" stroke="#000000" stroke-width="4" stroke-linecap="round" stroke-linejoin="round" opacity="1" fill="none"></path><path d="M778.88 453.8C777 455.68 774.68 457.01 772.14 457.23" stroke="#000000" stroke-width="4" stroke-linecap="round" stroke-linejoin="round" opacity="1" fill="none"></path><path d="M754.23 465.3C752.35 466.62 750.47 467.51 748.37 468.06" stroke="#000000" stroke-width="4" stroke-linecap="round" stroke-linejoin="round" opacity="1" fill="none"></path><path d="M806.96 501.22C812.04 497.13 818.12 491.94 821.88 486.52" stroke="#000000" stroke-width="4" stroke-linecap="round" stroke-linejoin="round" opacity="1" fill="none"></path><path d="M614.84 936.08C619.48 925.8 620.15 918.72 622.69 906.01 622.69 906.01 622.69 906.01 622.69 905.9L633.52 897.28 721.62 943.81V954.09C718.53 965.92 714.55 977.86 710.13 990.02 707.47 996.98 704.82 1004.17 701.83 1011.24L639.38 993.55 614.84 936.08Z" fill="#a56250" opacity="1" stroke-width="4" stroke="none"></path><path d="M613.85 938.06C614.18 937.4 614.51 936.63 614.84 936.08L641.59 949.67C649.55 953.65 650.88 964.59 644.13 970.23L635.51 977.53C635.29 977.75 635.29 978.08 635.62 978.3L701.95 1011.35C701.72 1011.68 701.61 1012.12 701.5 1012.46 700.29 1015.44 698.96 1018.43 697.63 1021.52 694.43 1028.82 691.11 1036.33 687.35 1043.85 687.13 1044.18 686.69 1045.06 686.58 1045.4L608.65 1015.88 552.17 977.75C563.44 966.25 596.6 972.22 613.85 938.06Z" fill="#ffc930" opacity="1" stroke-width="4" stroke="none"></path><path d="M538.69 993.89C541.35 988.47 544.44 984.38 547.87 981.17 549.19 979.96 550.63 978.74 552.07 977.75L686.7 1044.95C683.83 1050.92 680.73 1056.89 677.53 1062.97L538.69 993.89Z" fill="#246684" opacity="1" stroke-width="4" stroke="none"></path><path d="M947.23 708.04L939.93 673.99 835.47 690.79C835.47 690.79 721.07 723.84 678.84 755.79 646.79 780 642.37 801.55 631.09 861.13 628.11 877.05 625.23 892.97 622.69 905.9 622.69 905.9 622.69 906.01 622.8 906.01L721.51 954.31C738.75 889.43 740.3 857.15 740.19 815.26L860.01 815.59C916.83 815.92 959.28 763.53 947.23 708.04Z" fill="#246684" opacity="1" stroke-width="4" stroke="none"></path><path d="M657.62 804.2C678.73 755.79 740.19 815.26 740.19 815.26 740.41 857.04 738.75 889.43 721.51 954.31 718.42 966.14 714.44 978.08 710.01 990.24 707.36 997.2 704.71 1004.39 701.72 1011.46 701.5 1011.79 701.39 1012.24 701.28 1012.57 700.07 1015.55 698.74 1018.54 697.41 1021.63 694.21 1028.93 690.89 1036.44 687.13 1043.96 686.91 1044.29 686.8 1044.62 686.69 1045.06 683.82 1051.03 680.72 1057 677.52 1063.08L636.18 1042.41C640.38 1017.43 673.98 1017.43 670.44 977.86 667.57 945.36 640.16 840.9 657.62 804.2Z" fill="#000000" opacity="0.3" stroke-width="4" stroke="none"></path><path d="M695.42 982.94C694.76 970.89 694.65 967.25 689.01 947.57L694.87 935.08 794.35 936.96 799 945.91C801.54 957.85 803.42 970.45 804.86 983.39 805.74 991.23 806.51 999.19 807.07 1007.37 807.18 1008.7 807.29 1009.91 807.29 1011.24 807.29 1011.35 807.29 1011.35 807.18 1011.35L721.18 1023.84 695.42 982.94Z" fill="#a56250" opacity="1" stroke-width="4" stroke="none"></path><path d="M658.95 1042.19C670 1023.73 694.1 1018.54 695.42 982.94H724.49C733.34 982.94 739.42 992.01 735.99 1000.19L731.57 1010.47C731.46 1010.8 731.68 1011.24 732.01 1011.24H807.18C807.29 1011.24 807.29 1011.24 807.29 1011.35 807.4 1013.23 807.62 1015.11 807.73 1016.99 808.17 1025.06 808.5 1033.24 808.61 1041.53V1044.51C808.61 1044.51 808.61 1044.62 808.5 1044.62L767.83 1051.7 657.73 1044.62C657.62 1044.62 657.62 1044.51 657.62 1044.51 658.06 1043.85 658.5 1042.96 658.95 1042.19Z" fill="#ffc930" opacity="1" stroke-width="4" stroke="none"></path><path d="M657.73 1044.62H808.5C808.61 1044.62 808.61 1044.62 808.61 1044.73 808.72 1050.81 808.61 1056.89 808.5 1063.19L653.53 1063.75C653.53 1057.67 654.41 1052.58 656.07 1048.38 656.51 1047.05 657.07 1045.84 657.73 1044.62 657.62 1044.62 657.62 1044.62 657.73 1044.62Z" fill="#246684" opacity="1" stroke-width="4" stroke="none"></path><path d="M959.83 673.99L819.23 677.2C819.23 677.2 787.72 690.57 751.69 701.85 712.78 714.01 668.78 733.35 653.53 760.98 633.41 797.46 659.5 845.32 676.3 903.47 680.72 919.05 685.36 934.64 689.01 947.35L798.89 945.91C799 945.91 799 945.8 799 945.8 785.18 880.36 772.14 853.28 753.23 816.03 753.23 815.92 753.23 815.81 753.35 815.81H824.42 912.74C991.22 816.03 1003.93 730.7 959.83 673.99Z" fill="#246684" opacity="1" stroke-width="4" stroke="none"></path><path d="M646.46 797.02C648.33 827.31 664.58 862.79 676.3 903.47 680.72 919.05 685.36 934.64 689.01 947.35" stroke="#369ac8" stroke-width="4" stroke-linecap="round" stroke-linejoin="round" opacity="1" fill="none"></path><path d="M737.32 788.51L753.12 815.7H753.23L824.53 815.7C785.95 815.7 751.47 784.2 737.43 788.29 737.32 788.4 737.21 788.51 737.32 788.51Z" fill="#246684" opacity="0.15" stroke-width="4" stroke="none"></path><path d="M731.35 1011.35L716.2 1044.62" stroke="#0c0a07" stroke-width="4" stroke-linecap="round" stroke-linejoin="round" opacity="1" fill="none"></path><path d="M634.96 977.97L598.92 1001.29" stroke="#0c0a07" stroke-width="4" stroke-linecap="round" stroke-linejoin="round" opacity="1" fill="none"></path><path d="M687.8 1010.25L701.83 1017.54" stroke="#0c0a07" stroke-width="4" stroke-linecap="round" stroke-linejoin="round" opacity="1" fill="none"></path><path d="M681.06 1018.76L692.23 1030.36" stroke="#0c0a07" stroke-width="4" stroke-linecap="round" stroke-linejoin="round" opacity="1" fill="none"></path><path d="M599.92 955.97L612.74 968.46" stroke="#0c0a07" stroke-width="4" stroke-linecap="round" stroke-linejoin="round" opacity="1" fill="none"></path><path d="M591.41 962.38L598.37 977.86" stroke="#0c0a07" stroke-width="4" stroke-linecap="round" stroke-linejoin="round" opacity="1" fill="none"></path><path d="M753.12 815.81L736.99 787.96" stroke="#369ac8" stroke-width="4" stroke-linecap="round" stroke-linejoin="round" opacity="1" fill="none"></path><path d="M751.69 701.85C751.69 701.85 760.75 620.27 770.81 573.4 780.87 526.54 809.83 510.29 810.16 510.18L811.6 514.38C812.48 517.03 813.81 519.46 815.69 522 820.44 528.3 827.96 532.17 836.03 532.17 841.44 532.17 846.53 530.51 850.95 527.31 871.29 512.28 877.04 477.9 877.15 477.57 885.33 475.36 893.51 474.14 901.46 474.14 951.98 474.14 978.18 513.49 992.22 537.37 1015.76 577.49 1046.6 658.3 1026.7 699.42 1019.96 713.23 1007.47 722.08 989.89 725.17 987.9 725.5 985.58 725.72 982.93 725.72 960.6 725.72 920.92 711.68 866.65 684.6L819.23 685.38C819.23 685.38 790.6 690.79 751.69 701.85Z" fill="#ffffff" opacity="1" stroke-width="4" stroke="none"></path><path d="M814.25 594.52L819.23 685.38C819.23 685.49 819.23 685.49 819.11 685.49 817.79 685.71 802.64 688.58 779.98 694.22 779.87 694.22 779.87 694.11 779.87 694.11L814.14 594.52C814.14 594.4 814.25 594.4 814.25 594.52Z" fill="#4d4d4d" opacity="0.3" stroke-width="4" stroke="none"></path><path d="M814.25 593.96L819.23 685.49" stroke="#4d4d4d" stroke-width="4" stroke-linecap="round" stroke-linejoin="round" opacity="1" fill="none"></path><path d="M920.92 581.47L932.75 620.82C932.75 620.93 932.75 620.93 932.64 620.93 924.46 618.28 915.95 615.19 907.43 613.09L920.7 581.47C920.7 581.36 920.92 581.36 920.92 581.47Z" fill="#4d4d4d" opacity="0.3" stroke-width="4" stroke="none"></path><path d="M770.82 706.93C782.43 706.93 802.43 674.1 802.66 673.88 822.11 670.23 828.63 667.14 830.4 666.25 830.73 666.03 831.06 666.03 831.4 666.25 833.39 667.36 841.12 671.56 851.18 676.76L874.62 606.67C858.92 604.02 844.11 602.58 830.62 602.58 783.97 599.93 739.54 631.32 725.83 655.75 717.98 668.02 724.62 673.77 724.73 673.77 719.64 682.61 722.52 689.8 729.37 691.9 729.04 695.77 731.58 701.52 736.89 701.18 750.59 700.41 771.48 677.09 778.78 670.79 779.33 670.57 779.44 671.12 779.22 671.34 777.34 676.09 761.2 708.81 770.82 706.93Z" fill="#a56250" opacity="1" stroke-width="4" stroke="none"></path><path d="M729.69 691.9C736.43 683.94 749.7 665.92 768.82 653.54" stroke="#000000" stroke-width="4" stroke-linecap="round" stroke-linejoin="round" opacity="1" fill="none"></path><path d="M724.72 673.77C739.42 652.33 760.97 636.74 760.97 636.74" stroke="#000000" stroke-width="4" stroke-linecap="round" stroke-linejoin="round" opacity="1" fill="none"></path><path d="M874.6 606.67C910.75 612.31 920.59 616.73 933.08 621.93" stroke="#4d4d4d" stroke-width="4" stroke-linecap="round" stroke-linejoin="round" opacity="1" fill="none"></path><path d="M920.81 581.14L933.08 621.93" stroke="#4d4d4d" stroke-width="4" stroke-linecap="round" stroke-linejoin="round" opacity="1" fill="none"></path><path d="M866.65 684.6L851.17 676.76" stroke="#4d4d4d" stroke-width="4" stroke-linecap="round" stroke-linejoin="round" opacity="1" fill="none"></path></g><g><path d="M1142.26 689.04H1117.04V1063.51H1142.26V689.04Z" fill="#231f20" opacity="1" stroke-width="4" stroke="none"></path><path d="M527.79 689.04H502.57V1063.51H527.79V689.04Z" fill="#231f20" opacity="1" stroke-width="4" stroke="none"></path><path d="M471.76 675.04H1174.01C1175.67 675.03 1177.31 675.35 1178.85 675.98 1180.38 676.61 1181.77 677.54 1182.94 678.71 1184.11 679.89 1185.04 681.28 1185.67 682.81 1186.3 684.34 1186.62 685.99 1186.62 687.64 1186.62 689.3 1186.3 690.94 1185.67 692.48 1185.04 694.01 1184.11 695.4 1182.94 696.57 1181.77 697.75 1180.38 698.67 1178.85 699.3 1177.31 699.93 1175.67 700.26 1174.01 700.25H471.76C470.1 700.26 468.46 699.93 466.93 699.3 465.39 698.67 464 697.75 462.83 696.57 461.66 695.4 460.73 694.01 460.1 692.48 459.47 690.94 459.14 689.3 459.15 687.64 459.14 685.99 459.47 684.34 460.1 682.81 460.73 681.28 461.66 679.89 462.83 678.71 464 677.54 465.39 676.61 466.93 675.98 468.46 675.35 470.1 675.03 471.76 675.04Z" fill="#231f20" opacity="1" stroke-width="4" stroke="none"></path></g><g><path d="M1339.71 888.34H1222.78V1061.74H1339.71V888.34Z" fill="#246684" opacity="1" stroke-width="4" stroke="none"></path><path d="M1339.71 974.57V891.37H1229.98L1339.71 974.57Z" fill="#041d28" opacity="0.2" stroke-width="4" stroke="none"></path><path d="M1260.3 940.74H1375.34L1339.71 887.39H1223.82L1260.3 940.74Z" fill="#ffa0dc" opacity="1" stroke-width="4" stroke="none"></path><path d="M1225.05 888.34H1161.85V1061.74H1225.05V888.34Z" fill="#041d28" opacity="1" stroke-width="4" stroke="none"></path><path d="M1161.85 966.99L1221.45 889.47 1161.85 890.42V966.99Z" fill="#000000" opacity="0.2" stroke-width="4" stroke="none"></path><path d="M1126.22 940.74H1189.14L1226.19 887.39H1161.85L1126.22 940.74Z" fill="#ffa0dc" opacity="1" stroke-width="4" stroke="none"></path><path d="M1224.67 889.19V1061.74" stroke="#010005" stroke-width="4" stroke-linecap="round" stroke-linejoin="round" opacity="1" fill="none"></path><path d="M1339.14 1011.62H1162.42" stroke="#010005" stroke-width="4" stroke-linecap="round" stroke-linejoin="round" opacity="1" fill="none"></path></g><g><path d="M1089.79 648.94C1090.65 648.94 1091.31 648.28 1091.31 647.42V611.59C1091.31 610.74 1090.65 610.07 1089.79 610.07H1039.83C1029.5 610.07 1021.06 618.51 1021.06 628.84V630.08C1021.06 640.5 1029.5 648.94 1039.93 648.94H1089.79ZM1080.31 637.85H1039.93C1035.66 637.85 1032.15 634.34 1032.15 630.08V628.94C1032.15 624.67 1035.66 621.17 1039.93 621.17H1080.31V637.85Z" fill="#ffc930" opacity="1" stroke-width="4" stroke="none"></path><path d="M1128.76 657.38L1136.91 586.66C1136.91 586.37 1136.53 586.18 1136.34 586.37 1133.02 590.35 1117.47 607.42 1092.45 608.08H1092.16C1074.34 608.08 1060.31 599.36 1048.36 586.28 1048.18 586.09 1047.8 586.18 1047.8 586.56L1055.85 657.38C1056.99 667.52 1065.52 675.11 1075.76 675.11H1108.94C1118.99 675.11 1127.62 667.52 1128.76 657.38Z" fill="#246684" opacity="1" stroke-width="4" stroke="none"></path><path d="M1072.73 585.61C1072.54 585.8 1052.73 586.09 1048.55 586.09 1048.18 586.09 1047.8 586.37 1047.89 586.75L1055.76 657.38C1056.9 667.52 1065.43 675.11 1075.67 675.11H1077.47L1072.73 585.61Z" fill="#222222" opacity="0.2" stroke-width="4" stroke="none"></path><path d="M1092.26 609.98C1119.47 609.98 1133.78 590.45 1136.53 586.37 1136.72 586.09 1136.53 585.61 1136.15 585.61H1048.46C1048.08 585.61 1047.8 586.09 1048.08 586.37 1057.84 601.16 1074.15 609.98 1091.97 609.98H1092.26Z" fill="#ffc930" opacity="1" stroke-width="4" stroke="none"></path></g><g><path d="M496.32 639.27C484.77 639.27 473.87 629.86 472.02 618.31L448.68 471.24C448.19 468.62 448.28 465.93 448.95 463.35 449.62 460.77 450.85 458.37 452.54 456.32 454.25 454.37 456.37 452.81 458.75 451.77 461.13 450.72 463.71 450.21 466.31 450.28H689.27C700.81 450.28 711.71 459.68 713.56 471.23L736.9 618.3C737.46 620.88 737.42 623.56 736.78 626.12 736.14 628.69 734.93 631.08 733.22 633.1 731.52 635.12 729.38 636.73 726.96 637.8 724.55 638.87 721.92 639.37 719.28 639.27H496.32Z" fill="#ffc930" opacity="1" stroke-width="4" stroke="none"></path><path d="M568.65 639.15L558.49 575.76 629.01 575.73 639.17 639.15H568.65Z" fill="#1d1a11" opacity="0.15" stroke-width="4" stroke="none"></path><path d="M531.62 675.6L558.38 575.63 628.89 575.61 602.13 675.6H531.62Z" fill="#ffc930" opacity="1" stroke-width="4" stroke="none"></path><path d="M585.28 537.73C577.86 537.73 570.58 532 567.15 523.48 565.07 518.56 564.7 513.09 566.09 507.93 566.64 505.72 567.69 503.66 569.17 501.91 570.64 500.17 572.5 498.79 574.6 497.88 576.18 497.25 577.88 496.92 579.58 496.93 587 496.93 594.28 502.65 597.71 511.17 602.03 521.89 598.68 533.38 590.26 536.77 588.67 537.41 586.98 537.73 585.28 537.73Z" fill="#ebe8df" opacity="1" stroke-width="4" stroke="none"></path><path d="M541.85 638.54L558.41 576.79H628.9L612.34 638.54" stroke="#1d1a11" stroke-width="4" stroke-linecap="round" stroke-linejoin="round" opacity="1" fill="none"></path><path d="M618.66 675.6L618.63 673.27C618.63 669.63 620.08 666.14 622.65 663.57 625.22 661 628.71 659.56 632.35 659.55H857.95C861.59 659.56 865.07 661 867.64 663.57 870.22 666.14 871.66 669.63 871.67 673.27V675.6H618.66Z" fill="#ffc930" opacity="1" stroke-width="4" stroke="none"></path><path d="M777.34 675.6L777.31 673.27C777.32 669.63 778.76 666.14 781.33 663.57 783.9 661 787.39 659.56 791.03 659.55H857.95C861.59 659.56 865.07 661 867.64 663.57 870.22 666.14 871.66 669.63 871.67 673.27V675.6H777.34Z" fill="#1d1a11" opacity="1" stroke-width="4" stroke="none"></path></g><g><path d="M1018.98 1001.02H1083.96C1084.7 1001.02 1084.88 1002.03 1084.14 1002.31 1077.99 1004.24 1065.67 1008.56 1052.62 1015.45 1039.85 1022.16 1026.33 1031.35 1017.24 1043.11H975.14C975.14 1043.11 976.8 1036.22 982.86 1027.58 988.93 1018.85 999.59 1008.46 1017.51 1001.39 1017.97 1001.11 1018.52 1001.02 1018.98 1001.02Z" fill="#ffc930" opacity="1" stroke-width="4" stroke="none"></path><path d="M1052.62 1015.36C1039.94 1022.07 1026.43 1031.16 1017.33 1043.02H975.23C975.23 1043.02 976.8 1036.13 982.86 1027.49L1052.62 1015.36Z" fill="#433306" opacity="0.3" stroke-width="4" stroke="none"></path><path d="M1108.87 1063.61H1011.17V1042.38C1011.17 1042.38 1032.4 1027.86 1059.97 1027.86 1083.22 1027.86 1102.07 1038.24 1107.3 1041.46 1108.22 1042.01 1108.77 1043.02 1108.77 1044.12L1108.87 1063.61Z" fill="#ffc930" opacity="1" stroke-width="4" stroke="none"></path><path d="M1011.63 1063.61H913.57V1042.56C913.57 1042.38 913.66 1042.29 913.75 1042.19 915.86 1040.82 936.27 1027.76 962.37 1027.76 989.94 1027.76 1011.63 1042.29 1011.63 1042.29V1063.61Z" fill="#ffc930" opacity="1" stroke-width="4" stroke="none"></path><path d="M914.03 1042.38C914.03 1042.38 935.26 1027.86 962.83 1027.86 990.4 1027.86 1011.63 1042.38 1011.63 1042.38V1063.61" stroke="#000000" stroke-width="4" stroke-linecap="round" stroke-linejoin="round" opacity="1" fill="none"></path></g></svg>